<?xml version="1.0" standalone="no"?>
<!DOCTYPE svg PUBLIC "-//W3C//DTD SVG 20010904//EN" "http://www.w3.org/TR/2001/REC-SVG-20010904/DTD/svg10.dtd">
<!-- Created using Karbon, part of Calligra: http://www.calligra.org/karbon -->
<svg xmlns="http://www.w3.org/2000/svg" xmlns:xlink="http://www.w3.org/1999/xlink" width="992.333pt" height="248.08pt">
<defs/>
<g id="layer0">
  <path id="shape0" transform="translate(1237.7, 47.2)" fill="#ffffff" fill-opacity="0.50000762951" d="M0 2.8C0 1.2536 1.2536 0 2.8 0C4.3464 0 5.6 1.2536 5.6 2.8C5.6 4.3464 4.3464 5.6 2.8 5.6C1.2536 5.6 0 4.3464 0 2.8Z"/>
  <path id="shape1" transform="translate(470.417, 88.5)" fill="#999999" stroke="#999999" stroke-width="1.00000000000" stroke-linecap="butt" stroke-linejoin="miter" stroke-miterlimit="10.00000000000" d="M10.5 21C4.70106 21 0 16.2989 0 10.5L0 10.5C0 4.70106 4.70106 0 10.5 0L10.5 0L469 0L469 0C476.5 0 490 10.5 490 10.5L490 10.5C490 10.5 476.5 21 469 21L469 21L10.5 21"/>
  <text id="shape2" fill="#999999" stroke="#999999" stroke-width="0.40000000000" stroke-linecap="butt" stroke-linejoin="miter" stroke-miterlimit="10.00000000000" font-family="Courier New" font-size="7.19999980927pt" x="0.00000000000pt" y="5.31250000000pt" transform="translate(48, 95.9594)"><tspan x="0"  y="6.64063">Campain Media</tspan></text>
  <path id="shape3" transform="translate(20, 88.5)" fill="none" stroke="#999999" stroke-width="1.00000000000" stroke-linecap="butt" stroke-linejoin="miter" stroke-miterlimit="10.00000000000" d="M10.5 21C4.70106 21 0 16.2989 0 10.5L0 10.5C0 4.70106 4.70106 0 10.5 0L10.5 0L99.5 0L99.5 0C107 0 120.5 10.5 120.5 10.5L120.5 10.5C120.5 10.5 107 21 99.5 21L99.5 21L10.5 21"/>
  <path id="shape4" transform="translate(20, 88.5)" fill="#999999" d="M0 10.5C0 4.70101 4.70101 0 10.5 0C16.299 0 21 4.70101 21 10.5C21 16.299 16.299 21 10.5 21C4.70101 21 0 16.299 0 10.5Z"/>
  <path id="shape5" transform="translate(140.5, 99)" fill="none" stroke="#000000" stroke-width="1.00000000000" stroke-linecap="butt" stroke-linejoin="miter" stroke-miterlimit="10.00000000000" stroke-dasharray="2,3" opacity="0.50000000000" d="M0 0L329.917 0"/>
  <text id="shape6" fill="#ffffff" stroke="#ffffff" stroke-width="0.40000000000" stroke-linecap="butt" stroke-linejoin="miter" stroke-miterlimit="10.00000000000" font-family="Courier New" font-size="9.60000038147pt" x="0.00000000000pt" y="7.42187500000pt" transform="translate(480.917, 93.7227)"><tspan x="0"  y="9.27734">22</tspan></text>
  <path id="shape7" transform="translate(558.117, 96.2)" fill="#ffffff" fill-opacity="0.50000762951" d="M0 2.8C0 1.2536 1.2536 0 2.8 0C4.3464 0 5.6 1.2536 5.6 2.8C5.6 4.3464 4.3464 5.6 2.8 5.6C1.2536 5.6 0 4.3464 0 2.8Z"/>
  <path id="shape8" transform="translate(628.117, 96.2)" fill="#ffffff" fill-opacity="0.50000762951" d="M0 2.8C0 1.2536 1.2536 0 2.8 0C4.3464 0 5.6 1.2536 5.6 2.8C5.6 4.3464 4.3464 5.6 2.8 5.6C1.2536 5.6 0 4.3464 0 2.8Z"/>
  <path id="shape9" transform="translate(698.117, 96.2)" fill="#ffffff" fill-opacity="0.50000762951" d="M0 2.8C0 1.2536 1.2536 0 2.8 0C4.3464 0 5.6 1.2536 5.6 2.8C5.6 4.3464 4.3464 5.6 2.8 5.6C1.2536 5.6 0 4.3464 0 2.8Z"/>
  <path id="shape10" transform="translate(768.117, 96.2)" fill="#ffffff" fill-opacity="0.50000762951" d="M0 2.8C0 1.2536 1.2536 0 2.8 0C4.3464 0 5.6 1.2536 5.6 2.8C5.6 4.3464 4.3464 5.6 2.8 5.6C1.2536 5.6 0 4.3464 0 2.8Z"/>
  <path id="shape11" transform="translate(838.117, 96.2)" fill="#ffffff" fill-opacity="0.50000762951" d="M0 2.8C0 1.2536 1.2536 0 2.8 0C4.3464 0 5.6 1.2536 5.6 2.8C5.6 4.3464 4.3464 5.6 2.8 5.6C1.2536 5.6 0 4.3464 0 2.8Z"/>
  <path id="shape12" transform="translate(908.117, 96.2)" fill="#ffffff" fill-opacity="0.50000762951" d="M0 2.8C0 1.2536 1.2536 0 2.8 0C4.3464 0 5.6 1.2536 5.6 2.8C5.6 4.3464 4.3464 5.6 2.8 5.6C1.2536 5.6 0 4.3464 0 2.8Z"/>
  <text id="shape13" fill="#ffffff" stroke="#ffffff" stroke-width="0.40000000000" stroke-linecap="butt" stroke-linejoin="miter" stroke-miterlimit="10.00000000000" font-family="Courier New" font-size="9.60000038147pt" x="0.00000000000pt" y="7.42187500000pt" transform="translate(931.917, 93.7227)"><tspan x="0"  y="9.27734">08</tspan></text>
  <path id="shape14" transform="translate(1048.12, 96.2)" fill="#ffffff" fill-opacity="0.50000762951" d="M0 2.8C0 1.2536 1.2536 0 2.8 0C4.3464 0 5.6 1.2536 5.6 2.8C5.6 4.3464 4.3464 5.6 2.8 5.6C1.2536 5.6 0 4.3464 0 2.8Z"/>
  <path id="shape15" transform="translate(480.417, 123.5)" fill="#999999" fill-opacity="0.60000000000" stroke="#999999" stroke-opacity="0.60000000000" stroke-width="1.00000000000" stroke-linecap="butt" stroke-linejoin="miter" stroke-miterlimit="10.00000000000" opacity="0.60000000000" d="M7 14C3.13404 14 0 10.866 0 7L0 7C0 3.13404 3.13404 0 7 0L7 0L356 0L356 0C361 0 370 7 370 7L370 7C370 7 361 14 356 14L356 14L7 14"/>
  <text id="shape16" fill="#999999" fill-opacity="0.60000000000" stroke="#999999" stroke-opacity="0.60000000000" stroke-width="0.40000000000" stroke-linecap="butt" stroke-linejoin="miter" stroke-miterlimit="10.00000000000" font-family="Courier New" font-size="5.59999990463pt" x="0.00000000000pt" y="4.56250000000pt" transform="translate(58.6667, 127.597)"><tspan x="0"  y="5.70313">Paid Ads</tspan></text>
  <path id="shape17" transform="translate(40, 123.5)" fill="none" stroke="#999999" stroke-opacity="0.60000000000" stroke-width="1.00000000000" stroke-linecap="butt" stroke-linejoin="miter" stroke-miterlimit="10.00000000000" opacity="0.60000000000" d="M7 14C3.13404 14 0 10.866 0 7L0 7C0 3.13404 3.13404 0 7 0L7 0L60 0L60 0C65 0 74 7 74 7L74 7C74 7 65 14 60 14L60 14L7 14"/>
  <path id="shape18" transform="translate(40, 123.5)" fill="#999999" fill-opacity="0.60000000000" d="M0 7C0 3.13401 3.13401 0 7 0C10.866 0 14 3.13401 14 7C14 10.866 10.866 14 7 14C3.13401 14 0 10.866 0 7Z"/>
  <path id="shape19" transform="translate(114, 130.5)" fill="none" stroke="#000000" stroke-width="1.00000000000" stroke-linecap="butt" stroke-linejoin="miter" stroke-miterlimit="10.00000000000" stroke-dasharray="2,3" opacity="0.50000000000" d="M0 0L366.417 0"/>
  <path id="shape20" transform="translate(480.417, 144.5)" fill="#999999" fill-opacity="0.60000000000" stroke="#999999" stroke-opacity="0.60000000000" stroke-width="1.00000000000" stroke-linecap="butt" stroke-linejoin="miter" stroke-miterlimit="10.00000000000" opacity="0.60000000000" d="M7 14C3.13404 14 0 10.866 0 7L0 7C0 3.13404 3.13404 0 7 0L7 0L456 0L456 0C461 0 470 7 470 7L470 7C470 7 461 14 456 14L456 14L7 14"/>
  <text id="shape21" fill="#999999" fill-opacity="0.60000000000" stroke="#999999" stroke-opacity="0.60000000000" stroke-width="0.40000000000" stroke-linecap="butt" stroke-linejoin="miter" stroke-miterlimit="10.00000000000" font-family="Courier New" font-size="5.59999990463pt" x="0.00000000000pt" y="4.45312500000pt" transform="translate(58.6667, 148.734)"><tspan x="0"  y="5.56641">Press Coverage</tspan></text>
  <path id="shape22" transform="translate(40, 144.5)" fill="none" stroke="#999999" stroke-opacity="0.60000000000" stroke-width="1.00000000000" stroke-linecap="butt" stroke-linejoin="miter" stroke-miterlimit="10.00000000000" opacity="0.60000000000" d="M7 14C3.13404 14 0 10.866 0 7L0 7C0 3.13404 3.13404 0 7 0L7 0L84 0L84 0C89 0 98 7 98 7L98 7C98 7 89 14 84 14L84 14L7 14"/>
  <path id="shape23" transform="translate(40, 144.5)" fill="#999999" fill-opacity="0.60000000000" d="M0 7C0 3.13401 3.13401 0 7 0C10.866 0 14 3.13401 14 7C14 10.866 10.866 14 7 14C3.13401 14 0 10.866 0 7Z"/>
  <path id="shape24" transform="translate(138, 151.5)" fill="none" stroke="#000000" stroke-width="1.00000000000" stroke-linecap="butt" stroke-linejoin="miter" stroke-miterlimit="10.00000000000" stroke-dasharray="2,3" opacity="0.50000000000" d="M0 0L342.417 0"/>
  <path id="shape25" transform="translate(480.417, 165.5)" fill="#999999" fill-opacity="0.60000000000" stroke="#999999" stroke-opacity="0.60000000000" stroke-width="1.00000000000" stroke-linecap="butt" stroke-linejoin="miter" stroke-miterlimit="10.00000000000" opacity="0.60000000000" d="M7 14C3.13404 14 0 10.866 0 7L0 7C0 3.13404 3.13404 0 7 0L7 0L456 0L456 0C461 0 470 7 470 7L470 7C470 7 461 14 456 14L456 14L7 14"/>
  <text id="shape26" fill="#999999" fill-opacity="0.60000000000" stroke="#999999" stroke-opacity="0.60000000000" stroke-width="0.40000000000" stroke-linecap="butt" stroke-linejoin="miter" stroke-miterlimit="10.00000000000" font-family="Courier New" font-size="5.59999990463pt" x="0.00000000000pt" y="4.56250000000pt" transform="translate(58.6667, 169.597)"><tspan x="0"  y="5.70313">Owned Media</tspan></text>
  <path id="shape27" transform="translate(40, 165.5)" fill="none" stroke="#999999" stroke-opacity="0.60000000000" stroke-width="1.00000000000" stroke-linecap="butt" stroke-linejoin="miter" stroke-miterlimit="10.00000000000" opacity="0.60000000000" d="M7 14C3.13404 14 0 10.866 0 7L0 7C0 3.13404 3.13404 0 7 0L7 0L72 0L72 0C77 0 86 7 86 7L86 7C86 7 77 14 72 14L72 14L7 14"/>
  <path id="shape28" transform="translate(40, 165.5)" fill="#999999" fill-opacity="0.60000000000" d="M0 7C0 3.13401 3.13401 0 7 0C10.866 0 14 3.13401 14 7C14 10.866 10.866 14 7 14C3.13401 14 0 10.866 0 7Z"/>
  <path id="shape29" transform="translate(126, 172.5)" fill="none" stroke="#000000" stroke-width="1.00000000000" stroke-linecap="butt" stroke-linejoin="miter" stroke-miterlimit="10.00000000000" stroke-dasharray="2,3" opacity="0.50000000000" d="M0 0L354.417 0"/>
  <path id="shape30" transform="translate(850.417, 186.5)" fill="#999999" fill-opacity="0.60000000000" stroke="#999999" stroke-opacity="0.60000000000" stroke-width="1.00000000000" stroke-linecap="butt" stroke-linejoin="miter" stroke-miterlimit="10.00000000000" opacity="0.60000000000" d="M7 14C3.13404 14 0 10.866 0 7L0 7C0 3.13404 3.13404 0 7 0L7 0L16 0L16 0C21 0 30 7 30 7L30 7C30 7 21 14 16 14L16 14L7 14"/>
  <text id="shape31" fill="#999999" fill-opacity="0.60000000000" stroke="#999999" stroke-opacity="0.60000000000" stroke-width="0.40000000000" stroke-linecap="butt" stroke-linejoin="miter" stroke-miterlimit="10.00000000000" font-family="Courier New" font-size="5.59999990463pt" x="0.00000000000pt" y="4.56250000000pt" transform="translate(58.6667, 190.597)"><tspan x="0"  y="5.70313">Paid Ads (heavy)</tspan></text>
  <path id="shape32" transform="translate(40, 186.5)" fill="none" stroke="#999999" stroke-opacity="0.60000000000" stroke-width="1.00000000000" stroke-linecap="butt" stroke-linejoin="miter" stroke-miterlimit="10.00000000000" opacity="0.60000000000" d="M7 14C3.13404 14 0 10.866 0 7L0 7C0 3.13404 3.13404 0 7 0L7 0L96 0L96 0C101 0 110 7 110 7L110 7C110 7 101 14 96 14L96 14L7 14"/>
  <path id="shape33" transform="translate(40, 186.5)" fill="#999999" fill-opacity="0.60000000000" d="M0 7C0 3.13401 3.13401 0 7 0C10.866 0 14 3.13401 14 7C14 10.866 10.866 14 7 14C3.13401 14 0 10.866 0 7Z"/>
  <path id="shape34" transform="translate(150, 193.5)" fill="none" stroke="#000000" stroke-width="1.00000000000" stroke-linecap="butt" stroke-linejoin="miter" stroke-miterlimit="10.00000000000" stroke-dasharray="2,3" opacity="0.50000000000" d="M0 0L700.417 0"/>
  <path id="shape35" transform="translate(20, 249.5)" fill="#cccabc" stroke="#cccabc" stroke-width="1.00000000000" stroke-linecap="butt" stroke-linejoin="miter" stroke-miterlimit="10.00000000000" d="M14 28C6.26808 28 0 21.7319 0 14L0 14C0 6.26808 6.26808 0 14 0L14 0L1172.42 0L1172.42 0C1182.42 0 1200.42 14 1200.42 14L1200.42 14C1200.42 14 1182.42 28 1172.42 28L1172.42 28L14 28"/>
  <text id="shape36" fill="#000000" fill-opacity="0.50000762951" font-family="sans-serif" font-size="14.39999961853pt" x="0.00000000000pt" y="10.39062500000pt" transform="translate(106, 271.712)"><tspan x="0"  y="12.9883">2017</tspan></text>
  <path id="shape37" transform="translate(147.9, 257.9)" fill="#000000" opacity="0.50000000000" d="M0 2.1C0 0.9402 0.9402 0 2.1 0C3.2598 0 4.2 0.9402 4.2 2.1C4.2 3.2598 3.2598 4.2 2.1 4.2C0.9402 4.2 0 3.2598 0 2.1Z"/>
  <path id="shape38" transform="translate(157.9, 257.9)" fill="#000000" opacity="0.50000000000" d="M0 2.1C0 0.9402 0.9402 0 2.1 0C3.2598 0 4.2 0.9402 4.2 2.1C4.2 3.2598 3.2598 4.2 2.1 4.2C0.9402 4.2 0 3.2598 0 2.1Z"/>
  <text id="shape39" fill="#000000" opacity="0.50000000000" font-family="sans-serif" font-size="8.00000000000pt" x="0.00000000000pt" y="5.93750000000pt" transform="translate(163.333, 256.078)"><tspan x="0"  y="7.42188">22</tspan></text>
  <path id="shape40" transform="translate(177.9, 257.9)" fill="#000000" opacity="0.50000000000" d="M0 2.1C0 0.9402 0.9402 0 2.1 0C3.2598 0 4.2 0.9402 4.2 2.1C4.2 3.2598 3.2598 4.2 2.1 4.2C0.9402 4.2 0 3.2598 0 2.1Z"/>
  <path id="shape41" transform="translate(187.9, 257.9)" fill="#000000" opacity="0.50000000000" d="M0 2.1C0 0.9402 0.9402 0 2.1 0C3.2598 0 4.2 0.9402 4.2 2.1C4.2 3.2598 3.2598 4.2 2.1 4.2C0.9402 4.2 0 3.2598 0 2.1Z"/>
  <path id="shape42" transform="translate(197.9, 257.9)" fill="#000000" opacity="0.50000000000" d="M0 2.1C0 0.9402 0.9402 0 2.1 0C3.2598 0 4.2 0.9402 4.2 2.1C4.2 3.2598 3.2598 4.2 2.1 4.2C0.9402 4.2 0 3.2598 0 2.1Z"/>
  <path id="shape43" transform="translate(207.9, 257.9)" fill="#000000" opacity="0.50000000000" d="M0 2.1C0 0.9402 0.9402 0 2.1 0C3.2598 0 4.2 0.9402 4.2 2.1C4.2 3.2598 3.2598 4.2 2.1 4.2C0.9402 4.2 0 3.2598 0 2.1Z"/>
  <path id="shape44" transform="translate(217.9, 257.9)" fill="#000000" opacity="0.50000000000" d="M0 2.1C0 0.9402 0.9402 0 2.1 0C3.2598 0 4.2 0.9402 4.2 2.1C4.2 3.2598 3.2598 4.2 2.1 4.2C0.9402 4.2 0 3.2598 0 2.1Z"/>
  <path id="shape45" transform="translate(227.9, 257.9)" fill="#000000" opacity="0.50000000000" d="M0 2.1C0 0.9402 0.9402 0 2.1 0C3.2598 0 4.2 0.9402 4.2 2.1C4.2 3.2598 3.2598 4.2 2.1 4.2C0.9402 4.2 0 3.2598 0 2.1Z"/>
  <text id="shape46" fill="#000000" opacity="0.50000000000" font-family="sans-serif" font-size="8.00000000000pt" x="0.00000000000pt" y="5.93750000000pt" transform="translate(233.333, 256.078)"><tspan x="0"  y="7.42188">29</tspan></text>
  <path id="shape47" transform="translate(247.9, 257.9)" fill="#000000" opacity="0.50000000000" d="M0 2.1C0 0.9402 0.9402 0 2.1 0C3.2598 0 4.2 0.9402 4.2 2.1C4.2 3.2598 3.2598 4.2 2.1 4.2C0.9402 4.2 0 3.2598 0 2.1Z"/>
  <path id="shape48" transform="translate(257.9, 257.9)" fill="#000000" opacity="0.50000000000" d="M0 2.1C0 0.9402 0.9402 0 2.1 0C3.2598 0 4.2 0.9402 4.2 2.1C4.2 3.2598 3.2598 4.2 2.1 4.2C0.9402 4.2 0 3.2598 0 2.1Z"/>
  <path id="shape49" transform="translate(267.9, 257.9)" fill="#000000" opacity="0.50000000000" d="M0 2.1C0 0.9402 0.9402 0 2.1 0C3.2598 0 4.2 0.9402 4.2 2.1C4.2 3.2598 3.2598 4.2 2.1 4.2C0.9402 4.2 0 3.2598 0 2.1Z"/>
  <path id="shape50" transform="translate(270, 273.5)" fill="none" stroke="#000000" stroke-width="3.00000000000" stroke-linecap="round" stroke-linejoin="miter" stroke-miterlimit="10.00000000000" opacity="0.50000000000" d="M0 0L0 8"/>
  <path id="shape51" transform="translate(277.9, 257.9)" fill="#000000" opacity="0.50000000000" d="M0 2.1C0 0.9402 0.9402 0 2.1 0C3.2598 0 4.2 0.9402 4.2 2.1C4.2 3.2598 3.2598 4.2 2.1 4.2C0.9402 4.2 0 3.2598 0 2.1Z"/>
  <path id="shape52" transform="translate(287.9, 257.9)" fill="#000000" opacity="0.50000000000" d="M0 2.1C0 0.9402 0.9402 0 2.1 0C3.2598 0 4.2 0.9402 4.2 2.1C4.2 3.2598 3.2598 4.2 2.1 4.2C0.9402 4.2 0 3.2598 0 2.1Z"/>
  <path id="shape53" transform="translate(297.9, 257.9)" fill="#000000" opacity="0.50000000000" d="M0 2.1C0 0.9402 0.9402 0 2.1 0C3.2598 0 4.2 0.9402 4.2 2.1C4.2 3.2598 3.2598 4.2 2.1 4.2C0.9402 4.2 0 3.2598 0 2.1Z"/>
  <text id="shape54" fill="#000000" opacity="0.50000000000" font-family="sans-serif" font-size="8.00000000000pt" x="0.00000000000pt" y="5.93750000000pt" transform="translate(303.333, 256.078)"><tspan x="0"  y="7.42188">05</tspan></text>
  <path id="shape55" transform="translate(317.9, 257.9)" fill="#000000" opacity="0.50000000000" d="M0 2.1C0 0.9402 0.9402 0 2.1 0C3.2598 0 4.2 0.9402 4.2 2.1C4.2 3.2598 3.2598 4.2 2.1 4.2C0.9402 4.2 0 3.2598 0 2.1Z"/>
  <path id="shape56" transform="translate(327.9, 257.9)" fill="#000000" opacity="0.50000000000" d="M0 2.1C0 0.9402 0.9402 0 2.1 0C3.2598 0 4.2 0.9402 4.2 2.1C4.2 3.2598 3.2598 4.2 2.1 4.2C0.9402 4.2 0 3.2598 0 2.1Z"/>
  <path id="shape57" transform="translate(337.9, 257.9)" fill="#000000" opacity="0.50000000000" d="M0 2.1C0 0.9402 0.9402 0 2.1 0C3.2598 0 4.2 0.9402 4.2 2.1C4.2 3.2598 3.2598 4.2 2.1 4.2C0.9402 4.2 0 3.2598 0 2.1Z"/>
  <path id="shape58" transform="translate(347.9, 257.9)" fill="#000000" opacity="0.50000000000" d="M0 2.1C0 0.9402 0.9402 0 2.1 0C3.2598 0 4.2 0.9402 4.2 2.1C4.2 3.2598 3.2598 4.2 2.1 4.2C0.9402 4.2 0 3.2598 0 2.1Z"/>
  <path id="shape59" transform="translate(357.9, 257.9)" fill="#000000" opacity="0.50000000000" d="M0 2.1C0 0.9402 0.9402 0 2.1 0C3.2598 0 4.2 0.9402 4.2 2.1C4.2 3.2598 3.2598 4.2 2.1 4.2C0.9402 4.2 0 3.2598 0 2.1Z"/>
  <path id="shape60" transform="translate(367.9, 257.9)" fill="#000000" opacity="0.50000000000" d="M0 2.1C0 0.9402 0.9402 0 2.1 0C3.2598 0 4.2 0.9402 4.2 2.1C4.2 3.2598 3.2598 4.2 2.1 4.2C0.9402 4.2 0 3.2598 0 2.1Z"/>
  <text id="shape61" fill="#000000" opacity="0.50000000000" font-family="sans-serif" font-size="8.00000000000pt" x="0.00000000000pt" y="5.93750000000pt" transform="translate(373.333, 256.078)"><tspan x="0"  y="7.42188">12</tspan></text>
  <path id="shape62" transform="translate(387.9, 257.9)" fill="#000000" opacity="0.50000000000" d="M0 2.1C0 0.9402 0.9402 0 2.1 0C3.2598 0 4.2 0.9402 4.2 2.1C4.2 3.2598 3.2598 4.2 2.1 4.2C0.9402 4.2 0 3.2598 0 2.1Z"/>
  <path id="shape63" transform="translate(397.9, 257.9)" fill="#000000" opacity="0.50000000000" d="M0 2.1C0 0.9402 0.9402 0 2.1 0C3.2598 0 4.2 0.9402 4.2 2.1C4.2 3.2598 3.2598 4.2 2.1 4.2C0.9402 4.2 0 3.2598 0 2.1Z"/>
  <path id="shape64" transform="translate(407.9, 257.9)" fill="#000000" opacity="0.50000000000" d="M0 2.1C0 0.9402 0.9402 0 2.1 0C3.2598 0 4.2 0.9402 4.2 2.1C4.2 3.2598 3.2598 4.2 2.1 4.2C0.9402 4.2 0 3.2598 0 2.1Z"/>
  <path id="shape65" transform="translate(417.9, 257.9)" fill="#000000" opacity="0.50000000000" d="M0 2.1C0 0.9402 0.9402 0 2.1 0C3.2598 0 4.2 0.9402 4.2 2.1C4.2 3.2598 3.2598 4.2 2.1 4.2C0.9402 4.2 0 3.2598 0 2.1Z"/>
  <path id="shape66" transform="translate(427.9, 257.9)" fill="#000000" opacity="0.50000000000" d="M0 2.1C0 0.9402 0.9402 0 2.1 0C3.2598 0 4.2 0.9402 4.2 2.1C4.2 3.2598 3.2598 4.2 2.1 4.2C0.9402 4.2 0 3.2598 0 2.1Z"/>
  <path id="shape67" transform="translate(437.9, 257.9)" fill="#000000" opacity="0.50000000000" d="M0 2.1C0 0.9402 0.9402 0 2.1 0C3.2598 0 4.2 0.9402 4.2 2.1C4.2 3.2598 3.2598 4.2 2.1 4.2C0.9402 4.2 0 3.2598 0 2.1Z"/>
  <text id="shape68" fill="#000000" opacity="0.50000000000" font-family="sans-serif" font-size="8.00000000000pt" x="0.00000000000pt" y="5.93750000000pt" transform="translate(443.333, 256.078)"><tspan x="0"  y="7.42188">19</tspan></text>
  <path id="shape69" transform="translate(457.9, 257.9)" fill="#000000" opacity="0.50000000000" d="M0 2.1C0 0.9402 0.9402 0 2.1 0C3.2598 0 4.2 0.9402 4.2 2.1C4.2 3.2598 3.2598 4.2 2.1 4.2C0.9402 4.2 0 3.2598 0 2.1Z"/>
  <path id="shape70" transform="translate(467.9, 257.9)" fill="#000000" opacity="0.50000000000" d="M0 2.1C0 0.9402 0.9402 0 2.1 0C3.2598 0 4.2 0.9402 4.2 2.1C4.2 3.2598 3.2598 4.2 2.1 4.2C0.9402 4.2 0 3.2598 0 2.1Z"/>
  <path id="shape71" transform="translate(477.9, 257.9)" fill="#000000" opacity="0.50000000000" d="M0 2.1C0 0.9402 0.9402 0 2.1 0C3.2598 0 4.2 0.9402 4.2 2.1C4.2 3.2598 3.2598 4.2 2.1 4.2C0.9402 4.2 0 3.2598 0 2.1Z"/>
  <path id="shape72" transform="translate(487.9, 257.9)" fill="#000000" opacity="0.50000000000" d="M0 2.1C0 0.9402 0.9402 0 2.1 0C3.2598 0 4.2 0.9402 4.2 2.1C4.2 3.2598 3.2598 4.2 2.1 4.2C0.9402 4.2 0 3.2598 0 2.1Z"/>
  <path id="shape73" transform="translate(497.9, 257.9)" fill="#000000" opacity="0.50000000000" d="M0 2.1C0 0.9402 0.9402 0 2.1 0C3.2598 0 4.2 0.9402 4.2 2.1C4.2 3.2598 3.2598 4.2 2.1 4.2C0.9402 4.2 0 3.2598 0 2.1Z"/>
  <path id="shape74" transform="translate(507.9, 257.9)" fill="#000000" opacity="0.50000000000" d="M0 2.1C0 0.9402 0.9402 0 2.1 0C3.2598 0 4.2 0.9402 4.2 2.1C4.2 3.2598 3.2598 4.2 2.1 4.2C0.9402 4.2 0 3.2598 0 2.1Z"/>
  <text id="shape75" fill="#000000" opacity="0.50000000000" font-family="sans-serif" font-size="8.00000000000pt" x="0.00000000000pt" y="5.93750000000pt" transform="translate(513.333, 256.078)"><tspan x="0"  y="7.42188">26</tspan></text>
  <path id="shape76" transform="translate(527.9, 257.9)" fill="#000000" opacity="0.50000000000" d="M0 2.1C0 0.9402 0.9402 0 2.1 0C3.2598 0 4.2 0.9402 4.2 2.1C4.2 3.2598 3.2598 4.2 2.1 4.2C0.9402 4.2 0 3.2598 0 2.1Z"/>
  <path id="shape77" transform="translate(537.9, 257.9)" fill="#000000" opacity="0.50000000000" d="M0 2.1C0 0.9402 0.9402 0 2.1 0C3.2598 0 4.2 0.9402 4.2 2.1C4.2 3.2598 3.2598 4.2 2.1 4.2C0.9402 4.2 0 3.2598 0 2.1Z"/>
  <path id="shape78" transform="translate(547.9, 257.9)" fill="#000000" opacity="0.50000000000" d="M0 2.1C0 0.9402 0.9402 0 2.1 0C3.2598 0 4.2 0.9402 4.2 2.1C4.2 3.2598 3.2598 4.2 2.1 4.2C0.9402 4.2 0 3.2598 0 2.1Z"/>
  <path id="shape79" transform="translate(557.9, 257.9)" fill="#000000" opacity="0.50000000000" d="M0 2.1C0 0.9402 0.9402 0 2.1 0C3.2598 0 4.2 0.9402 4.2 2.1C4.2 3.2598 3.2598 4.2 2.1 4.2C0.9402 4.2 0 3.2598 0 2.1Z"/>
  <path id="shape80" transform="translate(567.9, 257.9)" fill="#000000" opacity="0.50000000000" d="M0 2.1C0 0.9402 0.9402 0 2.1 0C3.2598 0 4.2 0.9402 4.2 2.1C4.2 3.2598 3.2598 4.2 2.1 4.2C0.9402 4.2 0 3.2598 0 2.1Z"/>
  <path id="shape81" transform="translate(570, 273.5)" fill="none" stroke="#000000" stroke-width="3.00000000000" stroke-linecap="round" stroke-linejoin="miter" stroke-miterlimit="10.00000000000" opacity="0.50000000000" d="M0 0L0 8"/>
  <path id="shape82" transform="translate(577.9, 257.9)" fill="#000000" opacity="0.50000000000" d="M0 2.1C0 0.9402 0.9402 0 2.1 0C3.2598 0 4.2 0.9402 4.2 2.1C4.2 3.2598 3.2598 4.2 2.1 4.2C0.9402 4.2 0 3.2598 0 2.1Z"/>
  <text id="shape83" fill="#000000" opacity="0.50000000000" font-family="sans-serif" font-size="8.00000000000pt" x="0.00000000000pt" y="5.93750000000pt" transform="translate(583.333, 256.078)"><tspan x="0"  y="7.42188">03</tspan></text>
  <path id="shape84" transform="translate(597.9, 257.9)" fill="#000000" opacity="0.50000000000" d="M0 2.1C0 0.9402 0.9402 0 2.1 0C3.2598 0 4.2 0.9402 4.2 2.1C4.2 3.2598 3.2598 4.2 2.1 4.2C0.9402 4.2 0 3.2598 0 2.1Z"/>
  <path id="shape85" transform="translate(607.9, 257.9)" fill="#000000" opacity="0.50000000000" d="M0 2.1C0 0.9402 0.9402 0 2.1 0C3.2598 0 4.2 0.9402 4.2 2.1C4.2 3.2598 3.2598 4.2 2.1 4.2C0.9402 4.2 0 3.2598 0 2.1Z"/>
  <path id="shape86" transform="translate(617.9, 257.9)" fill="#000000" opacity="0.50000000000" d="M0 2.1C0 0.9402 0.9402 0 2.1 0C3.2598 0 4.2 0.9402 4.2 2.1C4.2 3.2598 3.2598 4.2 2.1 4.2C0.9402 4.2 0 3.2598 0 2.1Z"/>
  <path id="shape87" transform="translate(627.9, 257.9)" fill="#000000" opacity="0.50000000000" d="M0 2.1C0 0.9402 0.9402 0 2.1 0C3.2598 0 4.2 0.9402 4.2 2.1C4.2 3.2598 3.2598 4.2 2.1 4.2C0.9402 4.2 0 3.2598 0 2.1Z"/>
  <path id="shape88" transform="translate(637.9, 257.9)" fill="#000000" opacity="0.50000000000" d="M0 2.1C0 0.9402 0.9402 0 2.1 0C3.2598 0 4.2 0.9402 4.2 2.1C4.2 3.2598 3.2598 4.2 2.1 4.2C0.9402 4.2 0 3.2598 0 2.1Z"/>
  <path id="shape89" transform="translate(647.9, 257.9)" fill="#000000" opacity="0.50000000000" d="M0 2.1C0 0.9402 0.9402 0 2.1 0C3.2598 0 4.2 0.9402 4.2 2.1C4.2 3.2598 3.2598 4.2 2.1 4.2C0.9402 4.2 0 3.2598 0 2.1Z"/>
  <text id="shape90" fill="#000000" opacity="0.50000000000" font-family="sans-serif" font-size="8.00000000000pt" x="0.00000000000pt" y="5.93750000000pt" transform="translate(653.333, 256.078)"><tspan x="0"  y="7.42188">10</tspan></text>
  <path id="shape91" transform="translate(667.9, 257.9)" fill="#000000" opacity="0.50000000000" d="M0 2.1C0 0.9402 0.9402 0 2.1 0C3.2598 0 4.2 0.9402 4.2 2.1C4.2 3.2598 3.2598 4.2 2.1 4.2C0.9402 4.2 0 3.2598 0 2.1Z"/>
  <path id="shape92" transform="translate(677.9, 257.9)" fill="#000000" opacity="0.50000000000" d="M0 2.1C0 0.9402 0.9402 0 2.1 0C3.2598 0 4.2 0.9402 4.2 2.1C4.2 3.2598 3.2598 4.2 2.1 4.2C0.9402 4.2 0 3.2598 0 2.1Z"/>
  <path id="shape93" transform="translate(687.9, 257.9)" fill="#000000" opacity="0.50000000000" d="M0 2.1C0 0.9402 0.9402 0 2.1 0C3.2598 0 4.2 0.9402 4.2 2.1C4.2 3.2598 3.2598 4.2 2.1 4.2C0.9402 4.2 0 3.2598 0 2.1Z"/>
  <path id="shape94" transform="translate(697.9, 257.9)" fill="#000000" opacity="0.50000000000" d="M0 2.1C0 0.9402 0.9402 0 2.1 0C3.2598 0 4.2 0.9402 4.2 2.1C4.2 3.2598 3.2598 4.2 2.1 4.2C0.9402 4.2 0 3.2598 0 2.1Z"/>
  <path id="shape95" transform="translate(707.9, 257.9)" fill="#000000" opacity="0.50000000000" d="M0 2.1C0 0.9402 0.9402 0 2.1 0C3.2598 0 4.2 0.9402 4.2 2.1C4.2 3.2598 3.2598 4.2 2.1 4.2C0.9402 4.2 0 3.2598 0 2.1Z"/>
  <path id="shape96" transform="translate(717.9, 257.9)" fill="#000000" opacity="0.50000000000" d="M0 2.1C0 0.9402 0.9402 0 2.1 0C3.2598 0 4.2 0.9402 4.2 2.1C4.2 3.2598 3.2598 4.2 2.1 4.2C0.9402 4.2 0 3.2598 0 2.1Z"/>
  <text id="shape97" fill="#000000" opacity="0.50000000000" font-family="sans-serif" font-size="8.00000000000pt" x="0.00000000000pt" y="5.82812500000pt" transform="translate(723.333, 256.215)"><tspan x="0"  y="7.28516">17</tspan></text>
  <path id="shape98" transform="translate(737.9, 257.9)" fill="#000000" opacity="0.50000000000" d="M0 2.1C0 0.9402 0.9402 0 2.1 0C3.2598 0 4.2 0.9402 4.2 2.1C4.2 3.2598 3.2598 4.2 2.1 4.2C0.9402 4.2 0 3.2598 0 2.1Z"/>
  <path id="shape99" transform="translate(747.9, 257.9)" fill="#000000" opacity="0.50000000000" d="M0 2.1C0 0.9402 0.9402 0 2.1 0C3.2598 0 4.2 0.9402 4.2 2.1C4.2 3.2598 3.2598 4.2 2.1 4.2C0.9402 4.2 0 3.2598 0 2.1Z"/>
  <path id="shape100" transform="translate(757.9, 257.9)" fill="#000000" opacity="0.50000000000" d="M0 2.1C0 0.9402 0.9402 0 2.1 0C3.2598 0 4.2 0.9402 4.2 2.1C4.2 3.2598 3.2598 4.2 2.1 4.2C0.9402 4.2 0 3.2598 0 2.1Z"/>
  <path id="shape101" transform="translate(767.9, 257.9)" fill="#000000" opacity="0.50000000000" d="M0 2.1C0 0.9402 0.9402 0 2.1 0C3.2598 0 4.2 0.9402 4.2 2.1C4.2 3.2598 3.2598 4.2 2.1 4.2C0.9402 4.2 0 3.2598 0 2.1Z"/>
  <path id="shape102" transform="translate(777.9, 257.9)" fill="#000000" opacity="0.50000000000" d="M0 2.1C0 0.9402 0.9402 0 2.1 0C3.2598 0 4.2 0.9402 4.2 2.1C4.2 3.2598 3.2598 4.2 2.1 4.2C0.9402 4.2 0 3.2598 0 2.1Z"/>
  <path id="shape103" transform="translate(787.9, 257.9)" fill="#000000" opacity="0.50000000000" d="M0 2.1C0 0.9402 0.9402 0 2.1 0C3.2598 0 4.2 0.9402 4.2 2.1C4.2 3.2598 3.2598 4.2 2.1 4.2C0.9402 4.2 0 3.2598 0 2.1Z"/>
  <text id="shape104" fill="#000000" opacity="0.50000000000" font-family="sans-serif" font-size="8.00000000000pt" x="0.00000000000pt" y="5.93750000000pt" transform="translate(793.333, 256.078)"><tspan x="0"  y="7.42188">24</tspan></text>
  <path id="shape105" transform="translate(807.9, 257.9)" fill="#000000" opacity="0.50000000000" d="M0 2.1C0 0.9402 0.9402 0 2.1 0C3.2598 0 4.2 0.9402 4.2 2.1C4.2 3.2598 3.2598 4.2 2.1 4.2C0.9402 4.2 0 3.2598 0 2.1Z"/>
  <path id="shape106" transform="translate(817.9, 257.9)" fill="#000000" opacity="0.50000000000" d="M0 2.1C0 0.9402 0.9402 0 2.1 0C3.2598 0 4.2 0.9402 4.2 2.1C4.2 3.2598 3.2598 4.2 2.1 4.2C0.9402 4.2 0 3.2598 0 2.1Z"/>
  <path id="shape107" transform="translate(827.9, 257.9)" fill="#000000" opacity="0.50000000000" d="M0 2.1C0 0.9402 0.9402 0 2.1 0C3.2598 0 4.2 0.9402 4.2 2.1C4.2 3.2598 3.2598 4.2 2.1 4.2C0.9402 4.2 0 3.2598 0 2.1Z"/>
  <path id="shape108" transform="translate(837.9, 257.9)" fill="#000000" opacity="0.50000000000" d="M0 2.1C0 0.9402 0.9402 0 2.1 0C3.2598 0 4.2 0.9402 4.2 2.1C4.2 3.2598 3.2598 4.2 2.1 4.2C0.9402 4.2 0 3.2598 0 2.1Z"/>
  <path id="shape109" transform="translate(847.9, 257.9)" fill="#000000" opacity="0.50000000000" d="M0 2.1C0 0.9402 0.9402 0 2.1 0C3.2598 0 4.2 0.9402 4.2 2.1C4.2 3.2598 3.2598 4.2 2.1 4.2C0.9402 4.2 0 3.2598 0 2.1Z"/>
  <path id="shape110" transform="translate(857.9, 257.9)" fill="#000000" opacity="0.50000000000" d="M0 2.1C0 0.9402 0.9402 0 2.1 0C3.2598 0 4.2 0.9402 4.2 2.1C4.2 3.2598 3.2598 4.2 2.1 4.2C0.9402 4.2 0 3.2598 0 2.1Z"/>
  <text id="shape111" fill="#000000" opacity="0.50000000000" font-family="sans-serif" font-size="8.00000000000pt" x="0.00000000000pt" y="5.93750000000pt" transform="translate(863.333, 256.078)"><tspan x="0"  y="7.42188">31</tspan></text>
  <path id="shape112" transform="translate(877.9, 257.9)" fill="#000000" opacity="0.50000000000" d="M0 2.1C0 0.9402 0.9402 0 2.1 0C3.2598 0 4.2 0.9402 4.2 2.1C4.2 3.2598 3.2598 4.2 2.1 4.2C0.9402 4.2 0 3.2598 0 2.1Z"/>
  <path id="shape113" transform="translate(880, 273.5)" fill="none" stroke="#000000" stroke-width="3.00000000000" stroke-linecap="round" stroke-linejoin="miter" stroke-miterlimit="10.00000000000" opacity="0.50000000000" d="M0 0L0 8"/>
  <path id="shape114" transform="translate(887.9, 257.9)" fill="#000000" opacity="0.50000000000" d="M0 2.1C0 0.9402 0.9402 0 2.1 0C3.2598 0 4.2 0.9402 4.2 2.1C4.2 3.2598 3.2598 4.2 2.1 4.2C0.9402 4.2 0 3.2598 0 2.1Z"/>
  <path id="shape115" transform="translate(897.9, 257.9)" fill="#000000" opacity="0.50000000000" d="M0 2.1C0 0.9402 0.9402 0 2.1 0C3.2598 0 4.2 0.9402 4.2 2.1C4.2 3.2598 3.2598 4.2 2.1 4.2C0.9402 4.2 0 3.2598 0 2.1Z"/>
  <path id="shape116" transform="translate(907.9, 257.9)" fill="#000000" opacity="0.50000000000" d="M0 2.1C0 0.9402 0.9402 0 2.1 0C3.2598 0 4.2 0.9402 4.2 2.1C4.2 3.2598 3.2598 4.2 2.1 4.2C0.9402 4.2 0 3.2598 0 2.1Z"/>
  <path id="shape117" transform="translate(917.9, 257.9)" fill="#000000" opacity="0.50000000000" d="M0 2.1C0 0.9402 0.9402 0 2.1 0C3.2598 0 4.2 0.9402 4.2 2.1C4.2 3.2598 3.2598 4.2 2.1 4.2C0.9402 4.2 0 3.2598 0 2.1Z"/>
  <path id="shape118" transform="translate(927.9, 257.9)" fill="#000000" opacity="0.50000000000" d="M0 2.1C0 0.9402 0.9402 0 2.1 0C3.2598 0 4.2 0.9402 4.2 2.1C4.2 3.2598 3.2598 4.2 2.1 4.2C0.9402 4.2 0 3.2598 0 2.1Z"/>
  <text id="shape119" fill="#000000" opacity="0.50000000000" font-family="sans-serif" font-size="8.00000000000pt" x="0.00000000000pt" y="5.93750000000pt" transform="translate(933.333, 256.078)"><tspan x="0"  y="7.42188">07</tspan></text>
  <path id="shape120" transform="translate(947.9, 257.9)" fill="#000000" opacity="0.50000000000" d="M0 2.1C0 0.9402 0.9402 0 2.1 0C3.2598 0 4.2 0.9402 4.2 2.1C4.2 3.2598 3.2598 4.2 2.1 4.2C0.9402 4.2 0 3.2598 0 2.1Z"/>
  <path id="shape121" transform="translate(957.9, 257.9)" fill="#000000" opacity="0.50000000000" d="M0 2.1C0 0.9402 0.9402 0 2.1 0C3.2598 0 4.2 0.9402 4.2 2.1C4.2 3.2598 3.2598 4.2 2.1 4.2C0.9402 4.2 0 3.2598 0 2.1Z"/>
  <path id="shape122" transform="translate(967.9, 257.9)" fill="#000000" opacity="0.50000000000" d="M0 2.1C0 0.9402 0.9402 0 2.1 0C3.2598 0 4.2 0.9402 4.2 2.1C4.2 3.2598 3.2598 4.2 2.1 4.2C0.9402 4.2 0 3.2598 0 2.1Z"/>
  <path id="shape123" transform="translate(977.9, 257.9)" fill="#000000" opacity="0.50000000000" d="M0 2.1C0 0.9402 0.9402 0 2.1 0C3.2598 0 4.2 0.9402 4.2 2.1C4.2 3.2598 3.2598 4.2 2.1 4.2C0.9402 4.2 0 3.2598 0 2.1Z"/>
  <path id="shape124" transform="translate(987.9, 257.9)" fill="#000000" opacity="0.50000000000" d="M0 2.1C0 0.9402 0.9402 0 2.1 0C3.2598 0 4.2 0.9402 4.2 2.1C4.2 3.2598 3.2598 4.2 2.1 4.2C0.9402 4.2 0 3.2598 0 2.1Z"/>
  <path id="shape125" transform="translate(997.9, 257.9)" fill="#000000" opacity="0.50000000000" d="M0 2.1C0 0.9402 0.9402 0 2.1 0C3.2598 0 4.2 0.9402 4.2 2.1C4.2 3.2598 3.2598 4.2 2.1 4.2C0.9402 4.2 0 3.2598 0 2.1Z"/>
  <text id="shape126" fill="#000000" opacity="0.50000000000" font-family="sans-serif" font-size="8.00000000000pt" x="0.00000000000pt" y="5.82812500000pt" transform="translate(1003.33, 256.215)"><tspan x="0"  y="7.28516">14</tspan></text>
  <path id="shape127" transform="translate(1017.9, 257.9)" fill="#000000" opacity="0.50000000000" d="M0 2.1C0 0.9402 0.9402 0 2.1 0C3.2598 0 4.2 0.9402 4.2 2.1C4.2 3.2598 3.2598 4.2 2.1 4.2C0.9402 4.2 0 3.2598 0 2.1Z"/>
  <path id="shape128" transform="translate(1027.9, 257.9)" fill="#000000" opacity="0.50000000000" d="M0 2.1C0 0.9402 0.9402 0 2.1 0C3.2598 0 4.2 0.9402 4.2 2.1C4.2 3.2598 3.2598 4.2 2.1 4.2C0.9402 4.2 0 3.2598 0 2.1Z"/>
  <path id="shape129" transform="translate(1037.9, 257.9)" fill="#000000" opacity="0.50000000000" d="M0 2.1C0 0.9402 0.9402 0 2.1 0C3.2598 0 4.2 0.9402 4.2 2.1C4.2 3.2598 3.2598 4.2 2.1 4.2C0.9402 4.2 0 3.2598 0 2.1Z"/>
  <path id="shape130" transform="translate(1047.9, 257.9)" fill="#000000" opacity="0.50000000000" d="M0 2.1C0 0.9402 0.9402 0 2.1 0C3.2598 0 4.2 0.9402 4.2 2.1C4.2 3.2598 3.2598 4.2 2.1 4.2C0.9402 4.2 0 3.2598 0 2.1Z"/>
  <path id="shape131" transform="translate(1057.9, 257.9)" fill="#000000" opacity="0.50000000000" d="M0 2.1C0 0.9402 0.9402 0 2.1 0C3.2598 0 4.2 0.9402 4.2 2.1C4.2 3.2598 3.2598 4.2 2.1 4.2C0.9402 4.2 0 3.2598 0 2.1Z"/>
  <path id="shape132" transform="translate(1067.9, 257.9)" fill="#000000" opacity="0.50000000000" d="M0 2.1C0 0.9402 0.9402 0 2.1 0C3.2598 0 4.2 0.9402 4.2 2.1C4.2 3.2598 3.2598 4.2 2.1 4.2C0.9402 4.2 0 3.2598 0 2.1Z"/>
  <text id="shape133" fill="#000000" opacity="0.50000000000" font-family="sans-serif" font-size="8.00000000000pt" x="0.00000000000pt" y="5.93750000000pt" transform="translate(1073.33, 256.078)"><tspan x="0"  y="7.42188">21</tspan></text>
  <path id="shape134" transform="translate(1087.9, 257.9)" fill="#000000" opacity="0.50000000000" d="M0 2.1C0 0.9402 0.9402 0 2.1 0C3.2598 0 4.2 0.9402 4.2 2.1C4.2 3.2598 3.2598 4.2 2.1 4.2C0.9402 4.2 0 3.2598 0 2.1Z"/>
  <path id="shape135" transform="translate(1097.9, 257.9)" fill="#000000" opacity="0.50000000000" d="M0 2.1C0 0.9402 0.9402 0 2.1 0C3.2598 0 4.2 0.9402 4.2 2.1C4.2 3.2598 3.2598 4.2 2.1 4.2C0.9402 4.2 0 3.2598 0 2.1Z"/>
  <path id="shape136" transform="translate(1107.9, 257.9)" fill="#000000" opacity="0.50000000000" d="M0 2.1C0 0.9402 0.9402 0 2.1 0C3.2598 0 4.2 0.9402 4.2 2.1C4.2 3.2598 3.2598 4.2 2.1 4.2C0.9402 4.2 0 3.2598 0 2.1Z"/>
  <path id="shape137" transform="translate(1117.9, 257.9)" fill="#000000" opacity="0.50000000000" d="M0 2.1C0 0.9402 0.9402 0 2.1 0C3.2598 0 4.2 0.9402 4.2 2.1C4.2 3.2598 3.2598 4.2 2.1 4.2C0.9402 4.2 0 3.2598 0 2.1Z"/>
  <path id="shape138" transform="translate(1127.9, 257.9)" fill="#000000" opacity="0.50000000000" d="M0 2.1C0 0.9402 0.9402 0 2.1 0C3.2598 0 4.2 0.9402 4.2 2.1C4.2 3.2598 3.2598 4.2 2.1 4.2C0.9402 4.2 0 3.2598 0 2.1Z"/>
  <path id="shape139" transform="translate(1137.9, 257.9)" fill="#000000" opacity="0.50000000000" d="M0 2.1C0 0.9402 0.9402 0 2.1 0C3.2598 0 4.2 0.9402 4.2 2.1C4.2 3.2598 3.2598 4.2 2.1 4.2C0.9402 4.2 0 3.2598 0 2.1Z"/>
  <text id="shape140" fill="#000000" opacity="0.50000000000" font-family="sans-serif" font-size="8.00000000000pt" x="0.00000000000pt" y="5.93750000000pt" transform="translate(1143.33, 256.078)"><tspan x="0"  y="7.42188">28</tspan></text>
  <path id="shape141" transform="translate(1157.9, 257.9)" fill="#000000" opacity="0.50000000000" d="M0 2.1C0 0.9402 0.9402 0 2.1 0C3.2598 0 4.2 0.9402 4.2 2.1C4.2 3.2598 3.2598 4.2 2.1 4.2C0.9402 4.2 0 3.2598 0 2.1Z"/>
  <path id="shape142" transform="translate(1167.9, 257.9)" fill="#000000" opacity="0.50000000000" d="M0 2.1C0 0.9402 0.9402 0 2.1 0C3.2598 0 4.2 0.9402 4.2 2.1C4.2 3.2598 3.2598 4.2 2.1 4.2C0.9402 4.2 0 3.2598 0 2.1Z"/>
  <path id="shape143" transform="translate(1177.9, 257.9)" fill="#000000" opacity="0.50000000000" d="M0 2.1C0 0.9402 0.9402 0 2.1 0C3.2598 0 4.2 0.9402 4.2 2.1C4.2 3.2598 3.2598 4.2 2.1 4.2C0.9402 4.2 0 3.2598 0 2.1Z"/>
  <text id="shape144" fill="#000000" opacity="0.50000000000" font-family="sans-serif" font-size="9.60000038147pt" x="0.00000000000pt" y="7.59375000000pt" transform="translate(160, 271.208)"><tspan x="0"  y="9.49219">October</tspan></text>
  <text id="shape145" fill="#000000" opacity="0.50000000000" font-family="sans-serif" font-size="9.60000038147pt" x="0.00000000000pt" y="7.59375000000pt" transform="translate(392, 271.208)"><tspan x="0"  y="9.49219">November</tspan></text>
  <text id="shape146" fill="#000000" opacity="0.50000000000" font-family="sans-serif" font-size="9.60000038147pt" x="0.00000000000pt" y="7.59375000000pt" transform="translate(697, 271.208)"><tspan x="0"  y="9.49219">December</tspan></text>
  <text id="shape147" fill="#000000" opacity="0.50000000000" font-family="sans-serif" font-size="9.60000038147pt" x="0.00000000000pt" y="7.29687500000pt" transform="translate(1131.42, 271.579)"><tspan x="0"  y="9.12109">January</tspan></text>
  <path id="shape148" transform="translate(23.5, 253)" fill="#000000" opacity="0.50000000000" d="M0 10.5C0 4.70101 4.70101 0 10.5 0C16.299 0 21 4.70101 21 10.5C21 16.299 16.299 21 10.5 21C4.70101 21 0 16.299 0 10.5Z"/>
 </g>
</svg>
