<?xml version="1.0" encoding="utf-8"?>
<!-- Generator: Adobe Illustrator 21.1.0, SVG Export Plug-In . SVG Version: 6.00 Build 0)  -->
<svg version="1.1" id="Calque_1" xmlns="http://www.w3.org/2000/svg" xmlns:xlink="http://www.w3.org/1999/xlink" x="0px" y="0px"
	 viewBox="0 0 1920 1080" style="enable-background:new 0 0 1920 1080;" xml:space="preserve">
<path d="M1101.3,444.5c0-11.3,0-22.6,0-33.9c0-9.2-0.2-18.3,0.1-27.5c0.4-13.6,8.7-22.4,22.1-22.5c26.1-0.2,23.2-2.4,23.2,21.9
	c0.1,84.8,0,169.5,0,254.3c0,14.7,0,14.7-14.8,14.7c-3.6,0-7.2,0-10.8,0c-17.2,0-17.2,0-21.7-16.4c-34.1,23.8-71.1,29.3-110,16.4
	c-25.3-8.4-45.2-24.6-59.9-47c-28.4-43.1-24.5-102.4,10.1-141.4c20.3-22.9,45.7-36.9,76.6-39.6c30.1-2.7,57.9,3.8,82.5,22.4
	C1099.5,445.5,1100.4,445,1101.3,444.5z M960,540.5c0,40.3,30.4,71.3,70.2,71.5c40,0.2,71.7-30.9,72.4-71.1
	c0.7-39.1-31.9-71.9-71.4-72C990.8,468.8,960,499.8,960,540.5z"/>
<path d="M162.6,446.6c31.8-23,66.3-28.8,103-19.6c27.4,6.9,48.8,23.2,65.3,46c30.1,41.6,27.3,102.7-5.5,142.6
	c-31,37.7-97,63.3-163.4,19.3c-0.4,4.1-0.9,7.4-0.9,10.8c-0.1,16.7,0,33.4-0.1,50.1c-0.1,17.1-7.6,24.6-24.4,24.7
	c-19.3,0.2-19.3,0.2-19.3-19c0-86.1,0-172.2,0-258.2c0-13.4,0.4-13.7,13.7-13.8c5.9,0,11.8,0.3,17.7-0.1c8.3-0.5,13.5,1.7,12.5,11.3
	C161,442.2,161.8,443.7,162.6,446.6z M160.7,540.8c0,39.4,31.6,71.3,70.7,71.3c39.6,0,72.1-32,72.4-71.3c0.3-39-32.5-71.7-71.9-71.8
	C192.2,468.8,160.7,500.7,160.7,540.8z"/>
<path d="M1755.7,446.7c3.3-17.2,3.3-17.2,19-17.2c5.9,0,11.8,0.3,17.7,0c7.6-0.4,10.5,2.9,10.4,10.4c-0.3,18.7-0.1,37.3-0.1,56
	c0,47.5,0,94.9,0,142.4c0,12.8-0.5,13.2-13.3,13.3c-4.9,0-9.8,0-14.7,0c-15.7,0-15.7,0-18.6-15.1c-67.6,36.4-127.7,30.6-172.6-35.9
	c-28.2-41.6-21.5-99.1,11.7-137.1c20.1-23,45.6-37,76.4-39.9C1701.9,420.7,1730,427.3,1755.7,446.7z M1686.3,612.1
	c39.7,0.2,72.2-31.5,72.7-71c0.6-38.9-32.3-71.9-71.7-72.1c-39.7-0.1-70.3,31-71.5,70.6C1614.5,578.3,1646.5,611.8,1686.3,612.1z"/>
<path d="M566.2,446.7c0.6-4.8,0.2-7.8,1.4-9.7c1.8-2.8,4.5-6.8,7.1-7.1c10.1-0.8,20.2-0.3,30.4-0.3c6.1,0,7.6,3.7,7.6,9
	c-0.1,12.8,0,25.5,0,38.3c0,54,0,107.9,0,161.9c0,12.1-0.6,12.6-12.8,12.7c-4.9,0-9.8,0.1-14.7,0c-18.2-0.4-15.6,1.4-19.3-16.4
	c-33.5,23.7-69.8,28.9-108.3,17.1c-24.6-7.6-43.9-23.3-58.5-44.1c-30.2-43-29.1-98.4,2.6-139c19.7-25.2,45.3-41.7,77.5-45.3
	C510.2,420.3,539.5,426.3,566.2,446.7z M569.1,540.4c0-39.4-31.9-71.4-70.9-71.4c-40.1,0-72.1,31.6-72.2,71.2
	c-0.2,40.1,32,72,72.5,71.9C537.5,612,569.2,579.8,569.1,540.4z"/>
<path d="M1294.2,423.3c60.9-2.1,117,50.7,116.8,117.5c-0.2,67.2-57.1,119-119.3,117.3c-65-1.8-116-52.4-115.9-118.3
	C1176,473.9,1227.6,423.2,1294.2,423.3z M1362.5,540.9c0.3-37.2-32.1-69.7-69.4-69.8c-37.2,0-68.5,31.3-69,69
	c-0.5,37.2,30.6,69,68.3,69.7C1329.2,610.6,1362.2,578.2,1362.5,540.9z"/>
<path d="M881.6,587.7c0,17.7-0.3,35.3,0.1,53c0.2,8-2.8,11.3-10.9,11c-8.5-0.4-17,0-25.5-0.1c-12.3-0.1-12.9-0.6-12.9-12.7
	c-0.1-31.7,0-63.5,0-95.2c0-39.7-23.8-68.1-63.1-71.9c-40-3.9-73.2,27-74,64.5c-0.8,34-0.2,68-0.2,102.1c0,12.7-0.5,13.2-13.3,13.2
	c-9.2,0-18.4,0.6-27.4-0.4c-3-0.3-8-4.5-8-7c0.1-41.2-2.1-82.6,2.1-123.4c5.7-55.4,56.4-95.9,112.1-97.7
	c67.8-2.2,122,53.5,121.3,120.5C881.4,558.2,881.6,572.9,881.6,587.7z"/>
<path d="M1440.6,583.5c0-22.5-2.3-45.4,0.5-67.5c5.8-45.8,34.2-73.5,77.5-86.5c10.2-3.1,21.1-4.2,31.7-5.9
	c9.1-1.5,13.5,2.1,12.8,11.8c-0.6,7.5-0.7,15.1,0,22.6c1,10.1-3.5,14-13.1,14.9c-17,1.5-32.4,6.8-44.9,19.3
	c-11.1,11.1-16.5,24.2-16.6,39.6c-0.2,35-0.1,70-0.2,105c0,14.1-0.7,14.7-15.1,14.8c-6.5,0-13.1,0-19.6,0c-14.3,0-14.5-0.2-14.5-14
	c0-18,0-36,0-54C1439.6,583.5,1440.1,583.5,1440.6,583.5z"/>
</svg>
